<svg width="25" height="20" viewBox="0 0 25 20" fill="none" xmlns="http://www.w3.org/2000/svg">
<path fill-rule="evenodd" clip-rule="evenodd" d="M3.60854 5.78867C3.60874 4.79061 3.86191 3.80956 4.34347 2.94071C4.82504 2.07186 5.51864 1.34473 6.35697 0.829866C7.19531 0.315005 8.14991 0.0299025 9.12813 0.00222686C10.1064 -0.0254488 11.075 0.205242 11.94 0.671913C12.805 1.13858 13.5371 1.82539 14.0652 2.66567C14.5932 3.50595 14.8993 4.47118 14.9538 5.46769C15.0082 6.4642 14.8092 7.45814 14.376 8.35306C13.9427 9.24799 13.29 10.0135 12.4812 10.5753C14.223 11.2269 15.7338 12.3951 16.8191 13.9298C17.9044 15.4644 18.5146 17.2951 18.5711 19.1864C18.5741 19.2901 18.5571 19.3934 18.521 19.4904C18.485 19.5874 18.4305 19.6761 18.3608 19.7517C18.2199 19.9042 18.0255 19.9934 17.8202 19.9996C17.6149 20.0059 17.4155 19.9288 17.266 19.7851C17.1164 19.6415 17.029 19.4432 17.0228 19.2338C16.9613 17.1826 16.1192 15.2363 14.6748 13.8075C13.2304 12.3788 11.2972 11.5797 9.28504 11.5797C7.27284 11.5797 5.33971 12.3788 3.89531 13.8075C2.4509 15.2363 1.60873 17.1826 1.54727 19.2338C1.53693 19.44 1.44784 19.6338 1.29909 19.7738C1.15033 19.9137 0.953738 19.9887 0.751425 19.9827C0.549112 19.9766 0.35717 19.89 0.21672 19.7414C0.0762702 19.5927 -0.00151721 19.3939 2.24271e-05 19.1875C0.0563295 17.296 0.666408 15.465 1.75173 13.9302C2.83705 12.3954 4.34794 11.2269 6.08991 10.5753C5.32476 10.0445 4.6986 9.33078 4.26608 8.49643C3.83356 7.66208 3.60781 6.73245 3.60854 5.78867ZM9.28555 1.57785C8.19054 1.57785 7.14038 2.02149 6.36609 2.81117C5.59181 3.60085 5.15682 4.67189 5.15682 5.78867C5.15682 6.90544 5.59181 7.97648 6.36609 8.76616C7.14038 9.55584 8.19054 9.99948 9.28555 9.99948C10.3806 9.99948 11.4307 9.55584 12.205 8.76616C12.9793 7.97648 13.4143 6.90544 13.4143 5.78867C13.4143 4.67189 12.9793 3.60085 12.205 2.81117C11.4307 2.02149 10.3806 1.57785 9.28555 1.57785Z" fill="#12788A"/>
<path d="M17.8378 5.85772C17.6794 5.85772 17.5252 5.8682 17.3732 5.88915C17.267 5.90775 17.1582 5.90523 17.053 5.88176C16.9479 5.85829 16.8487 5.81434 16.7613 5.75253C16.6739 5.69072 16.6001 5.61233 16.5444 5.52202C16.4886 5.4317 16.452 5.33133 16.4368 5.22688C16.4215 5.12243 16.4279 5.01605 16.4556 4.91407C16.4833 4.8121 16.5317 4.71662 16.5979 4.63334C16.6641 4.55007 16.7468 4.48069 16.841 4.42935C16.9352 4.37802 17.039 4.34577 17.1462 4.33455C18.211 4.18391 19.2968 4.38399 20.2326 4.9033C21.1685 5.42261 21.9013 6.23167 22.3157 7.20315C22.7302 8.17463 22.8027 9.25338 22.522 10.2696C22.2412 11.2859 21.6231 12.1819 20.7648 12.8168C22.0264 13.3695 23.0976 14.2677 23.8491 15.4028C24.6006 16.538 25.0004 17.8618 25.0001 19.2143C25.0001 19.4227 24.9155 19.6225 24.765 19.7699C24.6144 19.9172 24.4101 20 24.1972 20C23.9842 20 23.78 19.9172 23.6294 19.7699C23.4788 19.6225 23.3942 19.4227 23.3942 19.2143C23.3941 18.0454 23.0092 16.9076 22.2965 15.9694C21.5838 15.0313 20.5812 14.3427 19.4373 14.0058L18.8656 13.8382V12.0824L19.3045 11.8635C19.9552 11.541 20.4758 11.0133 20.7823 10.3657C21.0888 9.71807 21.1633 8.98828 20.9938 8.29413C20.8242 7.59998 20.4206 6.98199 19.848 6.53993C19.2754 6.09787 18.5672 5.85753 17.8378 5.85772Z" fill="#12788A"/>
</svg>
