<svg width="18" height="20" viewBox="0 0 18 20" fill="none" xmlns="http://www.w3.org/2000/svg">
<path d="M0 17.1795V4.87178C5.34443e-06 3.31406 1.26641 2.05129 2.82858 2.05129C3.25463 2.0513 3.60001 2.39569 3.60001 2.82052C3.60001 3.24535 3.25462 3.58975 2.82858 3.58975C2.11851 3.58975 1.54286 4.16373 1.54286 4.87178V8.20514H12.0857C12.5118 8.20514 12.8572 8.54954 12.8572 8.97437C12.8572 9.3992 12.5118 9.74359 12.0857 9.7436H1.54286V17.1795L1.54328 17.2126C1.56089 17.9054 2.12959 18.4615 2.82858 18.4615H15.1714C15.8816 18.4615 16.4571 17.8876 16.4571 17.1795V4.87178C16.4571 4.16373 15.8815 3.58976 15.1714 3.58975H12.8572V4.87178C12.8572 5.29662 12.5118 5.64101 12.0857 5.64102C11.6597 5.64102 11.3143 5.29662 11.3143 4.87178V0.769231C11.3143 0.344396 11.6597 0 12.0857 0C12.5118 5.64596e-06 12.8572 0.3444 12.8572 0.769231V2.05129H15.1714C16.7337 2.0513 18 3.31407 18 4.87178V17.1795C18 18.7372 16.7337 20 15.1714 20H2.82858C1.27862 20 0.0198224 18.7569 0.000241072 17.216L0 17.1795ZM5.14287 4.87178V0.769231C5.14287 0.344396 5.48825 0 5.9143 0C6.34034 5.51909e-06 6.68573 0.3444 6.68573 0.769231V2.05129H9.00002C9.42606 2.0513 9.77144 2.39569 9.77144 2.82052C9.77144 3.24535 9.42606 3.58975 9.00002 3.58975H6.68573V4.87178C6.68573 5.29662 6.34034 5.64101 5.9143 5.64102C5.48825 5.64102 5.14287 5.29662 5.14287 4.87178Z" fill="#12788A"/>
</svg>
